<svg xmlns="http://www.w3.org/2000/svg" viewBox="0 0 200 200" width="200" height="200" role="img" aria-label="Signet Finanzberatung Rieken"><path d="M187.56,100 L187.51,100.76 L187.34,101.52 L187.07,102.28 L186.69,103.03 L186.2,103.76 L185.62,104.49 L184.95,105.2 L184.2,105.89 L183.37,106.56 L182.48,107.22 L181.53,107.85 L180.53,108.46 L179.49,109.06 L178.43,109.63 L177.35,110.18 L176.27,110.72 L175.2,111.24 L174.15,111.74 L173.12,112.24 L172.13,112.72 L171.2,113.2 L170.32,113.67 L169.5,114.14 L168.76,114.62 L168.1,115.1 L167.52,115.59 L167.04,116.09 L166.64,116.62 L166.34,117.16 L166.14,117.72 L166.03,118.31 L166.02,118.93 L166.1,119.58 L166.27,120.26 L166.53,120.98 L166.86,121.72 L167.26,122.51 L167.73,123.32 L168.26,124.17 L168.83,125.05 L169.44,125.96 L170.08,126.9 L170.74,127.87 L171.41,128.85 L172.08,129.86 L172.74,130.87 L173.37,131.9 L173.97,132.93 L174.53,133.96 L175.04,134.99 L175.48,136 L175.86,137 L176.17,137.98 L176.4,138.93 L176.54,139.84 L176.59,140.72 L176.54,141.56 L176.4,142.35 L176.17,143.09 L175.83,143.78 L175.4,144.42 L174.88,144.99 L174.26,145.51 L173.56,145.97 L172.77,146.36 L171.91,146.7 L170.97,146.98 L169.98,147.2 L168.92,147.37 L167.82,147.49 L166.68,147.56 L165.51,147.59 L164.31,147.59 L163.11,147.55 L161.9,147.5 L160.69,147.42 L159.51,147.33 L158.34,147.24 L157.21,147.16 L156.11,147.08 L155.06,147.03 L154.06,147 L153.12,147 L152.24,147.04 L151.43,147.12 L150.68,147.26 L150.01,147.46 L149.41,147.71 L148.88,148.03 L148.42,148.42 L148.03,148.88 L147.71,149.41 L147.46,150.01 L147.26,150.68 L147.12,151.43 L147.04,152.24 L147,153.12 L147,154.06 L147.03,155.06 L147.08,156.11 L147.16,157.21 L147.24,158.34 L147.33,159.51 L147.42,160.69 L147.5,161.9 L147.55,163.11 L147.59,164.31 L147.59,165.51 L147.56,166.68 L147.49,167.82 L147.37,168.92 L147.2,169.98 L146.98,170.97 L146.7,171.91 L146.36,172.77 L145.97,173.56 L145.51,174.26 L144.99,174.88 L144.42,175.4 L143.78,175.83 L143.09,176.17 L142.35,176.4 L141.56,176.54 L140.72,176.59 L139.84,176.54 L138.93,176.4 L137.98,176.17 L137,175.86 L136,175.48 L134.99,175.04 L133.96,174.53 L132.93,173.97 L131.9,173.37 L130.87,172.74 L129.86,172.08 L128.85,171.41 L127.87,170.74 L126.9,170.08 L125.96,169.44 L125.05,168.83 L124.17,168.26 L123.32,167.73 L122.51,167.26 L121.72,166.86 L120.98,166.53 L120.26,166.27 L119.58,166.1 L118.93,166.02 L118.31,166.03 L117.72,166.14 L117.16,166.34 L116.62,166.64 L116.09,167.04 L115.59,167.52 L115.1,168.1 L114.62,168.76 L114.14,169.5 L113.67,170.32 L113.2,171.2 L112.72,172.13 L112.24,173.12 L111.74,174.15 L111.24,175.2 L110.72,176.27 L110.18,177.35 L109.63,178.43 L109.06,179.49 L108.46,180.53 L107.85,181.53 L107.22,182.48 L106.56,183.37 L105.89,184.2 L105.2,184.95 L104.49,185.62 L103.76,186.2 L103.03,186.69 L102.28,187.07 L101.52,187.34 L100.76,187.51 L100,187.56 L99.24,187.51 L98.48,187.34 L97.72,187.07 L96.97,186.69 L96.24,186.2 L95.51,185.62 L94.8,184.95 L94.11,184.2 L93.44,183.37 L92.78,182.48 L92.15,181.53 L91.54,180.53 L90.94,179.49 L90.37,178.43 L89.82,177.35 L89.28,176.27 L88.76,175.2 L88.26,174.15 L87.76,173.12 L87.28,172.13 L86.8,171.2 L86.33,170.32 L85.86,169.5 L85.38,168.76 L84.9,168.1 L84.41,167.52 L83.91,167.04 L83.38,166.64 L82.84,166.34 L82.28,166.14 L81.69,166.03 L81.07,166.02 L80.42,166.1 L79.74,166.27 L79.02,166.53 L78.28,166.86 L77.49,167.26 L76.68,167.73 L75.83,168.26 L74.95,168.83 L74.04,169.44 L73.1,170.08 L72.13,170.74 L71.15,171.41 L70.14,172.08 L69.13,172.74 L68.1,173.37 L67.07,173.97 L66.04,174.53 L65.01,175.04 L64,175.48 L63,175.86 L62.02,176.17 L61.07,176.4 L60.16,176.54 L59.28,176.59 L58.44,176.54 L57.65,176.4 L56.91,176.17 L56.22,175.83 L55.58,175.4 L55.01,174.88 L54.49,174.26 L54.03,173.56 L53.64,172.77 L53.3,171.91 L53.02,170.97 L52.8,169.98 L52.63,168.92 L52.51,167.82 L52.44,166.68 L52.41,165.51 L52.41,164.31 L52.45,163.11 L52.5,161.9 L52.58,160.69 L52.67,159.51 L52.76,158.34 L52.84,157.21 L52.92,156.11 L52.97,155.06 L53,154.06 L53,153.12 L52.96,152.24 L52.88,151.43 L52.74,150.68 L52.54,150.01 L52.29,149.41 L51.97,148.88 L51.58,148.42 L51.12,148.03 L50.59,147.71 L49.99,147.46 L49.32,147.26 L48.57,147.12 L47.76,147.04 L46.88,147 L45.94,147 L44.94,147.03 L43.89,147.08 L42.79,147.16 L41.66,147.24 L40.49,147.33 L39.31,147.42 L38.1,147.5 L36.89,147.55 L35.69,147.59 L34.49,147.59 L33.32,147.56 L32.18,147.49 L31.08,147.37 L30.02,147.2 L29.03,146.98 L28.09,146.7 L27.23,146.36 L26.44,145.97 L25.74,145.51 L25.12,144.99 L24.6,144.42 L24.17,143.78 L23.83,143.09 L23.6,142.35 L23.46,141.56 L23.41,140.72 L23.46,139.84 L23.6,138.93 L23.83,137.98 L24.14,137 L24.52,136 L24.96,134.99 L25.47,133.96 L26.03,132.93 L26.63,131.9 L27.26,130.87 L27.92,129.86 L28.59,128.85 L29.26,127.87 L29.92,126.9 L30.56,125.96 L31.17,125.05 L31.74,124.17 L32.27,123.32 L32.74,122.51 L33.14,121.72 L33.47,120.98 L33.73,120.26 L33.9,119.58 L33.98,118.93 L33.97,118.31 L33.86,117.72 L33.66,117.16 L33.36,116.62 L32.96,116.09 L32.48,115.59 L31.9,115.1 L31.24,114.62 L30.5,114.14 L29.68,113.67 L28.8,113.2 L27.87,112.72 L26.88,112.24 L25.85,111.74 L24.8,111.24 L23.73,110.72 L22.65,110.18 L21.57,109.63 L20.51,109.06 L19.47,108.46 L18.47,107.85 L17.52,107.22 L16.63,106.56 L15.8,105.89 L15.05,105.2 L14.38,104.49 L13.8,103.76 L13.31,103.03 L12.93,102.28 L12.66,101.52 L12.49,100.76 L12.44,100 L12.49,99.24 L12.66,98.48 L12.93,97.72 L13.31,96.97 L13.8,96.24 L14.38,95.51 L15.05,94.8 L15.8,94.11 L16.63,93.44 L17.52,92.78 L18.47,92.15 L19.47,91.54 L20.51,90.94 L21.57,90.37 L22.65,89.82 L23.73,89.28 L24.8,88.76 L25.85,88.26 L26.88,87.76 L27.87,87.28 L28.8,86.8 L29.68,86.33 L30.5,85.86 L31.24,85.38 L31.9,84.9 L32.48,84.41 L32.96,83.91 L33.36,83.38 L33.66,82.84 L33.86,82.28 L33.97,81.69 L33.98,81.07 L33.9,80.42 L33.73,79.74 L33.47,79.02 L33.14,78.28 L32.74,77.49 L32.27,76.68 L31.74,75.83 L31.17,74.95 L30.56,74.04 L29.92,73.1 L29.26,72.13 L28.59,71.15 L27.92,70.14 L27.26,69.13 L26.63,68.1 L26.03,67.07 L25.47,66.04 L24.96,65.01 L24.52,64 L24.14,63 L23.83,62.02 L23.6,61.07 L23.46,60.16 L23.41,59.28 L23.46,58.44 L23.6,57.65 L23.83,56.91 L24.17,56.22 L24.6,55.58 L25.12,55.01 L25.74,54.49 L26.44,54.03 L27.23,53.64 L28.09,53.3 L29.03,53.02 L30.02,52.8 L31.08,52.63 L32.18,52.51 L33.32,52.44 L34.49,52.41 L35.69,52.41 L36.89,52.45 L38.1,52.5 L39.31,52.58 L40.49,52.67 L41.66,52.76 L42.79,52.84 L43.89,52.92 L44.94,52.97 L45.94,53 L46.88,53 L47.76,52.96 L48.57,52.88 L49.32,52.74 L49.99,52.54 L50.59,52.29 L51.12,51.97 L51.58,51.58 L51.97,51.12 L52.29,50.59 L52.54,49.99 L52.74,49.32 L52.88,48.57 L52.96,47.76 L53,46.88 L53,45.94 L52.97,44.94 L52.92,43.89 L52.84,42.79 L52.76,41.66 L52.67,40.49 L52.58,39.31 L52.5,38.1 L52.45,36.89 L52.41,35.69 L52.41,34.49 L52.44,33.32 L52.51,32.18 L52.63,31.08 L52.8,30.02 L53.02,29.03 L53.3,28.09 L53.64,27.23 L54.03,26.44 L54.49,25.74 L55.01,25.12 L55.58,24.6 L56.22,24.17 L56.91,23.83 L57.65,23.6 L58.44,23.46 L59.28,23.41 L60.16,23.46 L61.07,23.6 L62.02,23.83 L63,24.14 L64,24.52 L65.01,24.96 L66.04,25.47 L67.07,26.03 L68.1,26.63 L69.13,27.26 L70.14,27.92 L71.15,28.59 L72.13,29.26 L73.1,29.92 L74.04,30.56 L74.95,31.17 L75.83,31.74 L76.68,32.27 L77.49,32.74 L78.28,33.14 L79.02,33.47 L79.74,33.73 L80.42,33.9 L81.07,33.98 L81.69,33.97 L82.28,33.86 L82.84,33.66 L83.38,33.36 L83.91,32.96 L84.41,32.48 L84.9,31.9 L85.38,31.24 L85.86,30.5 L86.33,29.68 L86.8,28.8 L87.28,27.87 L87.76,26.88 L88.26,25.85 L88.76,24.8 L89.28,23.73 L89.82,22.65 L90.37,21.57 L90.94,20.51 L91.54,19.47 L92.15,18.47 L92.78,17.52 L93.44,16.63 L94.11,15.8 L94.8,15.05 L95.51,14.38 L96.24,13.8 L96.97,13.31 L97.72,12.93 L98.48,12.66 L99.24,12.49 L100,12.44 L100.76,12.49 L101.52,12.66 L102.28,12.93 L103.03,13.31 L103.76,13.8 L104.49,14.38 L105.2,15.05 L105.89,15.8 L106.56,16.63 L107.22,17.52 L107.85,18.47 L108.46,19.47 L109.06,20.51 L109.63,21.57 L110.18,22.65 L110.72,23.73 L111.24,24.8 L111.74,25.85 L112.24,26.88 L112.72,27.87 L113.2,28.8 L113.67,29.68 L114.14,30.5 L114.62,31.24 L115.1,31.9 L115.59,32.48 L116.09,32.96 L116.62,33.36 L117.16,33.66 L117.72,33.86 L118.31,33.97 L118.93,33.98 L119.58,33.9 L120.26,33.73 L120.98,33.47 L121.72,33.14 L122.51,32.74 L123.32,32.27 L124.17,31.74 L125.05,31.17 L125.96,30.56 L126.9,29.92 L127.87,29.26 L128.85,28.59 L129.86,27.92 L130.87,27.26 L131.9,26.63 L132.93,26.03 L133.96,25.47 L134.99,24.96 L136,24.52 L137,24.14 L137.98,23.83 L138.93,23.6 L139.84,23.46 L140.72,23.41 L141.56,23.46 L142.35,23.6 L143.09,23.83 L143.78,24.17 L144.42,24.6 L144.99,25.12 L145.51,25.74 L145.97,26.44 L146.36,27.23 L146.7,28.09 L146.98,29.03 L147.2,30.02 L147.37,31.08 L147.49,32.18 L147.56,33.32 L147.59,34.49 L147.59,35.69 L147.55,36.89 L147.5,38.1 L147.42,39.31 L147.33,40.49 L147.24,41.66 L147.16,42.79 L147.08,43.89 L147.03,44.94 L147,45.94 L147,46.88 L147.04,47.76 L147.12,48.57 L147.26,49.32 L147.46,49.99 L147.71,50.59 L148.03,51.12 L148.42,51.58 L148.88,51.97 L149.41,52.29 L150.01,52.54 L150.68,52.74 L151.43,52.88 L152.24,52.96 L153.12,53 L154.06,53 L155.06,52.97 L156.11,52.92 L157.21,52.84 L158.34,52.76 L159.51,52.67 L160.69,52.58 L161.9,52.5 L163.11,52.45 L164.31,52.41 L165.51,52.41 L166.68,52.44 L167.82,52.51 L168.92,52.63 L169.98,52.8 L170.97,53.02 L171.91,53.3 L172.77,53.64 L173.56,54.03 L174.26,54.49 L174.88,55.01 L175.4,55.58 L175.83,56.22 L176.17,56.91 L176.4,57.65 L176.54,58.44 L176.59,59.28 L176.54,60.16 L176.4,61.07 L176.17,62.02 L175.86,63 L175.48,64 L175.04,65.01 L174.53,66.04 L173.97,67.07 L173.37,68.1 L172.74,69.13 L172.08,70.14 L171.41,71.15 L170.74,72.13 L170.08,73.1 L169.44,74.04 L168.83,74.95 L168.26,75.83 L167.73,76.68 L167.26,77.49 L166.86,78.28 L166.53,79.02 L166.27,79.74 L166.1,80.42 L166.02,81.07 L166.03,81.69 L166.14,82.28 L166.34,82.84 L166.64,83.38 L167.04,83.91 L167.52,84.41 L168.1,84.9 L168.76,85.38 L169.5,85.86 L170.32,86.33 L171.2,86.8 L172.13,87.28 L173.12,87.76 L174.15,88.26 L175.2,88.76 L176.27,89.28 L177.35,89.82 L178.43,90.37 L179.49,90.94 L180.53,91.54 L181.53,92.15 L182.48,92.78 L183.37,93.44 L184.2,94.11 L184.95,94.8 L185.62,95.51 L186.2,96.24 L186.69,96.97 L187.07,97.72 L187.34,98.48 L187.51,99.24 L187.56,100 Z" fill="#E8DFCD"/><path d="M146.65,100 L146.62,100.41 L146.53,100.81 L146.38,101.21 L146.17,101.61 L145.91,102 L145.6,102.39 L145.24,102.77 L144.83,103.14 L144.39,103.49 L143.91,103.84 L143.39,104.18 L142.85,104.5 L142.3,104.82 L141.72,105.12 L141.14,105.42 L140.56,105.7 L139.99,105.98 L139.42,106.24 L138.87,106.5 L138.34,106.76 L137.83,107.01 L137.36,107.26 L136.92,107.51 L136.52,107.76 L136.17,108.02 L135.86,108.28 L135.59,108.55 L135.38,108.82 L135.22,109.11 L135.12,109.41 L135.06,109.72 L135.05,110.05 L135.1,110.4 L135.19,110.76 L135.33,111.14 L135.51,111.54 L135.73,111.95 L135.98,112.39 L136.27,112.84 L136.58,113.31 L136.91,113.8 L137.26,114.3 L137.62,114.82 L137.98,115.34 L138.34,115.88 L138.7,116.43 L139.04,116.97 L139.36,117.53 L139.67,118.08 L139.94,118.63 L140.19,119.17 L140.39,119.7 L140.56,120.22 L140.69,120.73 L140.76,121.22 L140.79,121.69 L140.77,122.14 L140.7,122.56 L140.57,122.96 L140.4,123.32 L140.17,123.66 L139.89,123.97 L139.56,124.24 L139.18,124.48 L138.76,124.69 L138.3,124.87 L137.8,125.02 L137.26,125.13 L136.69,125.22 L136.1,125.28 L135.49,125.31 L134.86,125.33 L134.22,125.32 L133.57,125.3 L132.92,125.26 L132.28,125.22 L131.64,125.17 L131.02,125.12 L130.41,125.07 L129.82,125.02 L129.26,124.99 L128.72,124.97 L128.22,124.96 L127.75,124.98 L127.31,125.03 L126.91,125.1 L126.55,125.2 L126.23,125.33 L125.95,125.5 L125.71,125.71 L125.5,125.95 L125.33,126.23 L125.2,126.55 L125.1,126.91 L125.03,127.31 L124.98,127.75 L124.96,128.22 L124.97,128.72 L124.99,129.26 L125.02,129.82 L125.07,130.41 L125.12,131.02 L125.17,131.64 L125.22,132.28 L125.26,132.92 L125.3,133.57 L125.32,134.22 L125.33,134.86 L125.31,135.49 L125.28,136.1 L125.22,136.69 L125.13,137.26 L125.02,137.8 L124.87,138.3 L124.69,138.76 L124.48,139.18 L124.24,139.56 L123.97,139.89 L123.66,140.17 L123.32,140.4 L122.96,140.57 L122.56,140.7 L122.14,140.77 L121.69,140.79 L121.22,140.76 L120.73,140.69 L120.22,140.56 L119.7,140.39 L119.17,140.19 L118.63,139.94 L118.08,139.67 L117.53,139.36 L116.97,139.04 L116.43,138.7 L115.88,138.34 L115.34,137.98 L114.82,137.62 L114.3,137.26 L113.8,136.91 L113.31,136.58 L112.84,136.27 L112.39,135.98 L111.95,135.73 L111.54,135.51 L111.14,135.33 L110.76,135.19 L110.4,135.1 L110.05,135.05 L109.72,135.06 L109.41,135.12 L109.11,135.22 L108.82,135.38 L108.55,135.59 L108.28,135.86 L108.02,136.17 L107.76,136.52 L107.51,136.92 L107.26,137.36 L107.01,137.83 L106.76,138.34 L106.5,138.87 L106.24,139.42 L105.98,139.99 L105.7,140.56 L105.42,141.14 L105.12,141.72 L104.82,142.3 L104.5,142.85 L104.18,143.39 L103.84,143.91 L103.49,144.39 L103.14,144.83 L102.77,145.24 L102.39,145.6 L102,145.91 L101.61,146.17 L101.21,146.38 L100.81,146.53 L100.41,146.62 L100,146.65 L99.59,146.62 L99.19,146.53 L98.79,146.38 L98.39,146.17 L98,145.91 L97.61,145.6 L97.23,145.24 L96.86,144.83 L96.51,144.39 L96.16,143.91 L95.82,143.39 L95.5,142.85 L95.18,142.3 L94.88,141.72 L94.58,141.14 L94.3,140.56 L94.02,139.99 L93.76,139.42 L93.5,138.87 L93.24,138.34 L92.99,137.83 L92.74,137.36 L92.49,136.92 L92.24,136.52 L91.98,136.17 L91.72,135.86 L91.45,135.59 L91.18,135.38 L90.89,135.22 L90.59,135.12 L90.28,135.06 L89.95,135.05 L89.6,135.1 L89.24,135.19 L88.86,135.33 L88.46,135.51 L88.05,135.73 L87.61,135.98 L87.16,136.27 L86.69,136.58 L86.2,136.91 L85.7,137.26 L85.18,137.62 L84.66,137.98 L84.12,138.34 L83.57,138.7 L83.03,139.04 L82.47,139.36 L81.92,139.67 L81.37,139.94 L80.83,140.19 L80.3,140.39 L79.78,140.56 L79.27,140.69 L78.78,140.76 L78.31,140.79 L77.86,140.77 L77.44,140.7 L77.04,140.57 L76.68,140.4 L76.34,140.17 L76.03,139.89 L75.76,139.56 L75.52,139.18 L75.31,138.76 L75.13,138.3 L74.98,137.8 L74.87,137.26 L74.78,136.69 L74.72,136.1 L74.69,135.49 L74.67,134.86 L74.68,134.22 L74.7,133.57 L74.74,132.92 L74.78,132.28 L74.83,131.64 L74.88,131.02 L74.93,130.41 L74.98,129.82 L75.01,129.26 L75.03,128.72 L75.04,128.22 L75.02,127.75 L74.97,127.31 L74.9,126.91 L74.8,126.55 L74.67,126.23 L74.5,125.95 L74.29,125.71 L74.05,125.5 L73.77,125.33 L73.45,125.2 L73.09,125.1 L72.69,125.03 L72.25,124.98 L71.78,124.96 L71.28,124.97 L70.74,124.99 L70.18,125.02 L69.59,125.07 L68.98,125.12 L68.36,125.17 L67.72,125.22 L67.08,125.26 L66.43,125.3 L65.78,125.32 L65.14,125.33 L64.51,125.31 L63.9,125.28 L63.31,125.22 L62.74,125.13 L62.2,125.02 L61.7,124.87 L61.24,124.69 L60.82,124.48 L60.44,124.24 L60.11,123.97 L59.83,123.66 L59.6,123.32 L59.43,122.96 L59.3,122.56 L59.23,122.14 L59.21,121.69 L59.24,121.22 L59.31,120.73 L59.44,120.22 L59.61,119.7 L59.81,119.17 L60.06,118.63 L60.33,118.08 L60.64,117.53 L60.96,116.97 L61.3,116.43 L61.66,115.88 L62.02,115.34 L62.38,114.82 L62.74,114.3 L63.09,113.8 L63.42,113.31 L63.73,112.84 L64.02,112.39 L64.27,111.95 L64.49,111.54 L64.67,111.14 L64.81,110.76 L64.9,110.4 L64.95,110.05 L64.94,109.72 L64.88,109.41 L64.78,109.11 L64.62,108.82 L64.41,108.55 L64.14,108.28 L63.83,108.02 L63.48,107.76 L63.08,107.51 L62.64,107.26 L62.17,107.01 L61.66,106.76 L61.13,106.5 L60.58,106.24 L60.01,105.98 L59.44,105.7 L58.86,105.42 L58.28,105.12 L57.7,104.82 L57.15,104.5 L56.61,104.18 L56.09,103.84 L55.61,103.49 L55.17,103.14 L54.76,102.77 L54.4,102.39 L54.09,102 L53.83,101.61 L53.62,101.21 L53.47,100.81 L53.38,100.41 L53.35,100 L53.38,99.59 L53.47,99.19 L53.62,98.79 L53.83,98.39 L54.09,98 L54.4,97.61 L54.76,97.23 L55.17,96.86 L55.61,96.51 L56.09,96.16 L56.61,95.82 L57.15,95.5 L57.7,95.18 L58.28,94.88 L58.86,94.58 L59.44,94.3 L60.01,94.02 L60.58,93.76 L61.13,93.5 L61.66,93.24 L62.17,92.99 L62.64,92.74 L63.08,92.49 L63.48,92.24 L63.83,91.98 L64.14,91.72 L64.41,91.45 L64.62,91.18 L64.78,90.89 L64.88,90.59 L64.94,90.28 L64.95,89.95 L64.9,89.6 L64.81,89.24 L64.67,88.86 L64.49,88.46 L64.27,88.05 L64.02,87.61 L63.73,87.16 L63.42,86.69 L63.09,86.2 L62.74,85.7 L62.38,85.18 L62.02,84.66 L61.66,84.12 L61.3,83.57 L60.96,83.03 L60.64,82.47 L60.33,81.92 L60.06,81.37 L59.81,80.83 L59.61,80.3 L59.44,79.78 L59.31,79.27 L59.24,78.78 L59.21,78.31 L59.23,77.86 L59.3,77.44 L59.43,77.04 L59.6,76.68 L59.83,76.34 L60.11,76.03 L60.44,75.76 L60.82,75.52 L61.24,75.31 L61.7,75.13 L62.2,74.98 L62.74,74.87 L63.31,74.78 L63.9,74.72 L64.51,74.69 L65.14,74.67 L65.78,74.68 L66.43,74.7 L67.08,74.74 L67.72,74.78 L68.36,74.83 L68.98,74.88 L69.59,74.93 L70.18,74.98 L70.74,75.01 L71.28,75.03 L71.78,75.04 L72.25,75.02 L72.69,74.97 L73.09,74.9 L73.45,74.8 L73.77,74.67 L74.05,74.5 L74.29,74.29 L74.5,74.05 L74.67,73.77 L74.8,73.45 L74.9,73.09 L74.97,72.69 L75.02,72.25 L75.04,71.78 L75.03,71.28 L75.01,70.74 L74.98,70.18 L74.93,69.59 L74.88,68.98 L74.83,68.36 L74.78,67.72 L74.74,67.08 L74.7,66.43 L74.68,65.78 L74.67,65.14 L74.69,64.51 L74.72,63.9 L74.78,63.31 L74.87,62.74 L74.98,62.2 L75.13,61.7 L75.31,61.24 L75.52,60.82 L75.76,60.44 L76.03,60.11 L76.34,59.83 L76.68,59.6 L77.04,59.43 L77.44,59.3 L77.86,59.23 L78.31,59.21 L78.78,59.24 L79.27,59.31 L79.78,59.44 L80.3,59.61 L80.83,59.81 L81.37,60.06 L81.92,60.33 L82.47,60.64 L83.03,60.96 L83.57,61.3 L84.12,61.66 L84.66,62.02 L85.18,62.38 L85.7,62.74 L86.2,63.09 L86.69,63.42 L87.16,63.73 L87.61,64.02 L88.05,64.27 L88.46,64.49 L88.86,64.67 L89.24,64.81 L89.6,64.9 L89.95,64.95 L90.28,64.94 L90.59,64.88 L90.89,64.78 L91.18,64.62 L91.45,64.41 L91.72,64.14 L91.98,63.83 L92.24,63.48 L92.49,63.08 L92.74,62.64 L92.99,62.17 L93.24,61.66 L93.5,61.13 L93.76,60.58 L94.02,60.01 L94.3,59.44 L94.58,58.86 L94.88,58.28 L95.18,57.7 L95.5,57.15 L95.82,56.61 L96.16,56.09 L96.51,55.61 L96.86,55.17 L97.23,54.76 L97.61,54.4 L98,54.09 L98.39,53.83 L98.79,53.62 L99.19,53.47 L99.59,53.38 L100,53.35 L100.41,53.38 L100.81,53.47 L101.21,53.62 L101.61,53.83 L102,54.09 L102.39,54.4 L102.77,54.76 L103.14,55.17 L103.49,55.61 L103.84,56.09 L104.18,56.61 L104.5,57.15 L104.82,57.7 L105.12,58.28 L105.42,58.86 L105.7,59.44 L105.98,60.01 L106.24,60.58 L106.5,61.13 L106.76,61.66 L107.01,62.17 L107.26,62.64 L107.51,63.08 L107.76,63.48 L108.02,63.83 L108.28,64.14 L108.55,64.41 L108.82,64.62 L109.11,64.78 L109.41,64.88 L109.72,64.94 L110.05,64.95 L110.4,64.9 L110.76,64.81 L111.14,64.67 L111.54,64.49 L111.95,64.27 L112.39,64.02 L112.84,63.73 L113.31,63.42 L113.8,63.09 L114.3,62.74 L114.82,62.38 L115.34,62.02 L115.88,61.66 L116.43,61.3 L116.97,60.96 L117.53,60.64 L118.08,60.33 L118.63,60.06 L119.17,59.81 L119.7,59.61 L120.22,59.44 L120.73,59.31 L121.22,59.24 L121.69,59.21 L122.14,59.23 L122.56,59.3 L122.96,59.43 L123.32,59.6 L123.66,59.83 L123.97,60.11 L124.24,60.44 L124.48,60.82 L124.69,61.24 L124.87,61.7 L125.02,62.2 L125.13,62.74 L125.22,63.31 L125.28,63.9 L125.31,64.51 L125.33,65.14 L125.32,65.78 L125.3,66.43 L125.26,67.08 L125.22,67.72 L125.17,68.36 L125.12,68.98 L125.07,69.59 L125.02,70.18 L124.99,70.74 L124.97,71.28 L124.96,71.78 L124.98,72.25 L125.03,72.69 L125.1,73.09 L125.2,73.45 L125.33,73.77 L125.5,74.05 L125.71,74.29 L125.95,74.5 L126.23,74.67 L126.55,74.8 L126.91,74.9 L127.31,74.97 L127.75,75.02 L128.22,75.04 L128.72,75.03 L129.26,75.01 L129.82,74.98 L130.41,74.93 L131.02,74.88 L131.64,74.83 L132.28,74.78 L132.92,74.74 L133.57,74.7 L134.22,74.68 L134.86,74.67 L135.49,74.69 L136.1,74.72 L136.69,74.78 L137.26,74.87 L137.8,74.98 L138.3,75.13 L138.76,75.31 L139.18,75.52 L139.56,75.76 L139.89,76.03 L140.17,76.34 L140.4,76.68 L140.57,77.04 L140.7,77.44 L140.77,77.86 L140.79,78.31 L140.76,78.78 L140.69,79.27 L140.56,79.78 L140.39,80.3 L140.19,80.83 L139.94,81.37 L139.67,81.92 L139.36,82.47 L139.04,83.03 L138.7,83.57 L138.34,84.12 L137.98,84.66 L137.62,85.18 L137.26,85.7 L136.91,86.2 L136.58,86.69 L136.27,87.16 L135.98,87.61 L135.73,88.05 L135.51,88.46 L135.33,88.86 L135.19,89.24 L135.1,89.6 L135.05,89.95 L135.06,90.28 L135.12,90.59 L135.22,90.89 L135.38,91.18 L135.59,91.45 L135.86,91.72 L136.17,91.98 L136.52,92.24 L136.92,92.49 L137.36,92.74 L137.83,92.99 L138.34,93.24 L138.87,93.5 L139.42,93.76 L139.99,94.02 L140.56,94.3 L141.14,94.58 L141.72,94.88 L142.3,95.18 L142.85,95.5 L143.39,95.82 L143.91,96.16 L144.39,96.51 L144.83,96.86 L145.24,97.23 L145.6,97.61 L145.91,98 L146.17,98.39 L146.38,98.79 L146.53,99.19 L146.62,99.59 L146.65,100 Z" fill="#14332C"/><circle cx="100" cy="100" r="21" fill="#E8DFCD"/></svg>